# xmcd
#
# Track frame offsets: 
#        150
#        3349
#        23716
#        53551
#        66985
#        84326
#        95734
#        113039
#        135140
#        138841
#        156141
#        182439
#        197975
#        221087
#        230382
#        240741
#        259638
#        278651
#        296057
#        330370
#
# Disc length: 4493 seconds
#
# Revision: 0
# Processed by: cddbd v1.5.2PL0 Copyright (c) Steve Scherf et al.
# Submitted via: ExactAudioCopy v0.99pb5
#
DISCID=0d118b14
DTITLE=Various Artist - Moonraker Sampler CD2
DYEAR=2002
DGENRE=Ballad
TTITLE0=Prologue
TTITLE1=Summertime (live) - Janis Joplin
TTITLE2=Queer (live) - Garbage
TTITLE3=Today (live) - Smashing Pumpkins
TTITLE4=Wonderwall (live) - Oasis
TTITLE5=Sadness (live) - Porno For Pyros
TTITLE6=Sell It And They Will Come (live) - Bruce Springsteen
TTITLE7=Charity (live) - Skunk Anansie
TTITLE8=segue
TTITLE9=Sex With Your Parents (Motherfucker)(live) - Lou Reed
TTITLE10=American Pie - Smells Like Teen Spirit (live) - Tori Amos
TTITLE11=You Can Sleep While I Drive (live) - Melissa Etheridge
TTITLE12=Hallo Spaceboy (live) - David Bowie
TTITLE13=Big Me (live) - Foo Fighters
TTITLE14=Lump (live) - The Presidents of the USA
TTITLE15=The Diamond Sea (edit)(live) - Sonic Youth
TTITLE16=Ironic (live) - Alanis Morissette
TTITLE17=It's Oh So Quiet (live) - Bjork
TTITLE18=Just My Imagination (live) - Prince
TTITLE19=outro
EXTD=
EXTT0=
EXTT1=
EXTT2=
EXTT3=
EXTT4=
EXTT5=
EXTT6=
EXTT7=
EXTT8=
EXTT9=
EXTT10=
EXTT11=
EXTT12=
EXTT13=
EXTT14=
EXTT15=
EXTT16=
EXTT17=
EXTT18=
EXTT19=
PLAYORDER=
